<svg xmlns="http://www.w3.org/2000/svg" width="132.452" height="137.857" viewBox="0 0 132.452 137.857">
  <title>logo</title>
  <g id="Livello_2" data-name="Livello 2">
    <g id="logo">
      <g>
        <g id="privasee" style="isolation: isolate">
          <g style="isolation: isolate">
            <path d="M1.825,137.557l5.7-22.765-2.251.825a19.367,19.367,0,0,0-2.212.975l.262-1.463q1.087-.486,2.213-.881t2.288-.731l1.2-4.5,3.113-.9-1.162,4.726a11.991,11.991,0,0,1,4.125-.676,10.461,10.461,0,0,1,2.231.226,4.86,4.86,0,0,1,1.8.769,3.679,3.679,0,0,1,1.2,1.443,5.109,5.109,0,0,1,.431,2.213,9.627,9.627,0,0,1-.431,2.7,17.258,17.258,0,0,1-1.163,2.906,17.9,17.9,0,0,1-1.763,2.794,15.7,15.7,0,0,1-2.231,2.382,10.837,10.837,0,0,1-2.55,1.649,6.416,6.416,0,0,1-2.7.62,4.37,4.37,0,0,1-1.594-.3,5.755,5.755,0,0,1-1.406-.788l-1.838,7.313,3.038.526-.187.674q-.789.075-1.557.113t-1.744.15q-.825.075-1.387.15t-1.2.15Zm8.139-8.664a3.373,3.373,0,0,0,1.913-.637,8.53,8.53,0,0,0,1.781-1.669,14.9,14.9,0,0,0,1.556-2.344,23.951,23.951,0,0,0,1.238-2.644,17.413,17.413,0,0,0,.806-2.588,10.073,10.073,0,0,0,.282-2.157A3.928,3.928,0,0,0,17.165,115a2.774,2.774,0,0,0-.938-1.05,3.287,3.287,0,0,0-1.182-.469,6.411,6.411,0,0,0-1.144-.112,10.635,10.635,0,0,0-1.856.15,5.093,5.093,0,0,0-1.369.412l-2.362,9.414q-.114.638-.263,1.294a8.13,8.13,0,0,0-.15,1.744,2.566,2.566,0,0,0,.131.731,3.106,3.106,0,0,0,.394.825,2.582,2.582,0,0,0,.656.675A1.48,1.48,0,0,0,9.964,128.893Z" style="fill: #fff"/>
            <path d="M23.84,117.192q.339-.525,1.013-1.369t1.481-1.669a11.3,11.3,0,0,1,1.65-1.406,2.775,2.775,0,0,1,1.519-.582,1.725,1.725,0,0,1,1.125.338,1.327,1.327,0,0,1,.413,1.088,4.737,4.737,0,0,1-.094.806,11.4,11.4,0,0,1-.281,1.144l-1.425,5.138h.075c.174-.325.413-.756.712-1.294s.638-1.125,1.013-1.763.781-1.281,1.219-1.931a17.165,17.165,0,0,1,1.331-1.744,9.037,9.037,0,0,1,1.35-1.275,2.163,2.163,0,0,1,1.276-.507q1.161,0,1.162,1.276a5.216,5.216,0,0,1-.075.806,3.709,3.709,0,0,1-.262.9,2.6,2.6,0,0,1-.488.75.986.986,0,0,1-.75.319,3.37,3.37,0,0,1-.694-.075,3.362,3.362,0,0,0-.694-.075,2,2,0,0,0-1.293.562,7.5,7.5,0,0,0-1.275,1.463,15.173,15.173,0,0,0-1.182,2.082q-.562,1.18-1.069,2.419t-.938,2.419q-.43,1.181-.731,2.156l-.675,2.4c-.05.124-.2.206-.45.243a6.1,6.1,0,0,1-.9.057,1.781,1.781,0,0,1-.788-.206q-.412-.207-.412-.47a3.169,3.169,0,0,1,.075-.337l2.962-10.351a11.517,11.517,0,0,0,.3-1.126,5.33,5.33,0,0,0,.15-1.087,1.432,1.432,0,0,0-.169-.637.567.567,0,0,0-.544-.338,1.521,1.521,0,0,0-.825.3,8.967,8.967,0,0,0-1.725,1.519q-.375.431-.6.694Z" style="fill: #fff"/>
            <path d="M39.292,126.531,42.517,117q.15-.411.244-.768a2.512,2.512,0,0,0,.094-.619.4.4,0,0,0-.451-.45,1.266,1.266,0,0,0-.674.3,6.722,6.722,0,0,0-.807.694,10.127,10.127,0,0,0-.712.787c-.213.263-.37.469-.469.619l-.525-.525c.274-.4.638-.881,1.087-1.444A14.918,14.918,0,0,1,41.786,114a10.813,10.813,0,0,1,1.688-1.294,3.2,3.2,0,0,1,1.669-.544,1.239,1.239,0,0,1,.918.263.952.952,0,0,1,.244.675,3.889,3.889,0,0,1-.188,1.05q-.187.639-.337,1.051l-3.075,9.525a4.922,4.922,0,0,0-.376,1.576q0,.563.488.562a1.247,1.247,0,0,0,.6-.319,10.623,10.623,0,0,0,.863-.75q.45-.431.844-.825l.543-.544.6.488q-.452.6-1.125,1.444a18.45,18.45,0,0,1-1.482,1.632,10.22,10.22,0,0,1-1.669,1.331,3.166,3.166,0,0,1-1.688.544,1.281,1.281,0,0,1-1.125-.432,1.823,1.823,0,0,1-.3-1.068A5.872,5.872,0,0,1,39.292,126.531Zm6.675-23.1a1.611,1.611,0,0,1,1.22.544,1.746,1.746,0,0,1,.505,1.219,1.611,1.611,0,0,1-.524,1.162,1.634,1.634,0,0,1-2.4,0,1.609,1.609,0,0,1-.526-1.162,1.743,1.743,0,0,1,.507-1.219A1.606,1.606,0,0,1,45.967,103.428Z" style="fill: #fff"/>
            <path d="M48.743,116.405q.6-.562,1.331-1.294a18.315,18.315,0,0,1,1.557-1.388,10.481,10.481,0,0,1,1.687-1.106,3.773,3.773,0,0,1,1.763-.451,1.122,1.122,0,0,1,.956.375,1.65,1.65,0,0,1,.281,1.013,4.219,4.219,0,0,1-.13.957q-.132.543-.319,1.181l-2.551,8.589q-.187.487-.318.956a3.655,3.655,0,0,0-.132.994,1.225,1.225,0,0,0,.469,1.012,1.825,1.825,0,0,0,1.182.375,4.219,4.219,0,0,0,2.4-.825,11.632,11.632,0,0,0,2.231-2.025,20.253,20.253,0,0,0,1.857-2.532,13.509,13.509,0,0,0,1.2-2.343,12.993,12.993,0,0,0,.563-1.707,7.751,7.751,0,0,0,.187-1.819c0-.325-.013-.65-.037-.975s-.038-.65-.038-.975a3.355,3.355,0,0,1,.356-1.557,1.358,1.358,0,0,1,1.331-.694,1.115,1.115,0,0,1,1.088.582,2.7,2.7,0,0,1,.3,1.256,8.556,8.556,0,0,1-.6,2.85,21.86,21.86,0,0,1-1.613,3.414,30.791,30.791,0,0,1-2.344,3.487,23.845,23.845,0,0,1-2.812,3.076,16.429,16.429,0,0,1-2.982,2.194,5.9,5.9,0,0,1-2.888.844,3.011,3.011,0,0,1-2.063-.694,2.63,2.63,0,0,1-.787-2.082,9,9,0,0,1,.412-2.25l2.288-7.313a7.233,7.233,0,0,0,.3-1.651,1.377,1.377,0,0,0-.15-.656.579.579,0,0,0-.562-.281,1.494,1.494,0,0,0-.732.225,4.481,4.481,0,0,0-.769.562q-.375.339-.731.694l-.581.581Z" style="fill: #fff"/>
            <path d="M67.045,126.756a9.768,9.768,0,0,1,.562-3.151,17.918,17.918,0,0,1,1.519-3.281,23.011,23.011,0,0,1,2.194-3.113,19.58,19.58,0,0,1,2.588-2.588,14.228,14.228,0,0,1,2.719-1.781,5.838,5.838,0,0,1,2.569-.676,2.627,2.627,0,0,1,1.331.357,3.543,3.543,0,0,1,1.032.881l.525-1.2q.113-.187.3-.469a.6.6,0,0,1,.525-.281H83.7c.226,0,.338.063.338.188a.466.466,0,0,1-.018.131c-.013.037-.033.094-.057.168l-3.713,13.314a2.739,2.739,0,0,0-.15.938.7.7,0,0,0,.095.356.366.366,0,0,0,.355.169,1.355,1.355,0,0,0,.788-.262,5.621,5.621,0,0,0,.732-.619q.355-.356.674-.732a5.653,5.653,0,0,1,.581-.6l.6.488a17.3,17.3,0,0,0-1.238,1.406q-.676.845-1.425,1.613a9.149,9.149,0,0,1-1.594,1.313,3.181,3.181,0,0,1-1.744.544,1.705,1.705,0,0,1-.844-.245.851.851,0,0,1-.431-.806,5.08,5.08,0,0,1,.187-1.218q.188-.732.45-1.519l1.088-3.414H78.3l.038.076h-.075l.037-.076q-.713,1.089-1.688,2.345a22.054,22.054,0,0,1-2.1,2.344,12.973,12.973,0,0,1-2.307,1.8,4.455,4.455,0,0,1-2.306.713,2.934,2.934,0,0,1-1.388-.3,2.487,2.487,0,0,1-.881-.751,2.835,2.835,0,0,1-.45-1.012A4.607,4.607,0,0,1,67.045,126.756Zm2.775-2.251a3.854,3.854,0,0,0,.412,1.782,1.531,1.531,0,0,0,1.5.806,3.587,3.587,0,0,0,1.876-.6,9.4,9.4,0,0,0,1.894-1.575,17.57,17.57,0,0,0,1.744-2.194,20.914,20.914,0,0,0,1.444-2.476,16.25,16.25,0,0,0,.975-2.418,7,7,0,0,0,.357-1.988,1.887,1.887,0,0,0-.563-1.313,1.751,1.751,0,0,0-1.313-.6,4.354,4.354,0,0,0-2.025.526,8.6,8.6,0,0,0-1.931,1.387,13.448,13.448,0,0,0-1.726,1.988,16.927,16.927,0,0,0-1.388,2.288,14.211,14.211,0,0,0-.919,2.306A7.457,7.457,0,0,0,69.82,124.505Z" style="fill: #fff"/>
          </g>
          <g style="isolation: isolate">
            <path d="M93.035,111.9a10.02,10.02,0,0,1,2.307.244,17.19,17.19,0,0,1,2.119.656q-.075,1.012-.112,2.006a16.77,16.77,0,0,0,.037,1.97l-1.05.187a5.685,5.685,0,0,0-.862-2.644,2.8,2.8,0,0,0-2.514-1.069,2.9,2.9,0,0,0-1.762.581,1.952,1.952,0,0,0-.788,1.669,2.424,2.424,0,0,0,.581,1.669,5.888,5.888,0,0,0,1.445,1.163q.862.505,1.856.975a10.461,10.461,0,0,1,1.857,1.125,6.023,6.023,0,0,1,1.444,1.575,4.323,4.323,0,0,1,.581,2.344,5.436,5.436,0,0,1-.564,2.569,4.772,4.772,0,0,1-1.461,1.707,6.286,6.286,0,0,1-2.044.938,9.12,9.12,0,0,1-2.307.3,8.278,8.278,0,0,1-2.4-.319q-1.051-.32-2.026-.657l-.338-4.163,1.051-.225a5.89,5.89,0,0,0,.338,1.5,4.27,4.27,0,0,0,.73,1.276,3.592,3.592,0,0,0,1.125.9,3.2,3.2,0,0,0,1.483.337,3.265,3.265,0,0,0,1.949-.618,2.137,2.137,0,0,0,.863-1.857,2.108,2.108,0,0,0-.562-1.5,6.228,6.228,0,0,0-1.388-1.087q-.825-.487-1.819-.976a9.329,9.329,0,0,1-1.819-1.162,6.041,6.041,0,0,1-1.387-1.632,4.7,4.7,0,0,1-.564-2.419,5.35,5.35,0,0,1,.451-2.231,4.813,4.813,0,0,1,1.256-1.688,5.709,5.709,0,0,1,1.912-1.069A7.382,7.382,0,0,1,93.035,111.9Z" style="fill: #fff"/>
            <path d="M109.612,111.9a6.112,6.112,0,0,1,2.569.507,5.307,5.307,0,0,1,1.857,1.387,5.914,5.914,0,0,1,1.125,2.081,7.967,7.967,0,0,1,.337,2.588l-.45.413H104.924a11.576,11.576,0,0,0,.338,2.794,7.639,7.639,0,0,0,1.05,2.438,5.567,5.567,0,0,0,1.819,1.725,5.007,5.007,0,0,0,2.606.656,5.731,5.731,0,0,0,4.463-2.025l.6.713a11.723,11.723,0,0,1-1.313,1.837,8.936,8.936,0,0,1-1.669,1.5,7.815,7.815,0,0,1-1.968.994,6.98,6.98,0,0,1-2.25.357,6.408,6.408,0,0,1-3.132-.75,7.075,7.075,0,0,1-2.287-1.97,8.774,8.774,0,0,1-1.389-2.756,10.759,10.759,0,0,1-.469-3.15,10.517,10.517,0,0,1,.582-3.451,9.7,9.7,0,0,1,1.651-3,8.046,8.046,0,0,1,2.605-2.1A7.452,7.452,0,0,1,109.612,111.9Zm-.338,5.851q.75,0,1.219-.019a1.487,1.487,0,0,0,.713-.169.7.7,0,0,0,.318-.431,3.109,3.109,0,0,0,.076-.769,3.77,3.77,0,0,0-.169-1.088,3.237,3.237,0,0,0-.506-1.012,2.712,2.712,0,0,0-.825-.731,2.211,2.211,0,0,0-1.125-.282,3.111,3.111,0,0,0-1.538.375,3.842,3.842,0,0,0-1.163.994,5.536,5.536,0,0,0-.806,1.444,8.874,8.874,0,0,0-.469,1.688Z" style="fill: #fff"/>
            <path d="M126.264,111.9a6.115,6.115,0,0,1,2.569.507,5.3,5.3,0,0,1,1.856,1.387,5.882,5.882,0,0,1,1.125,2.081,7.887,7.887,0,0,1,.337,2.588l-.45.413H121.575a11.676,11.676,0,0,0,.338,2.794,7.639,7.639,0,0,0,1.05,2.438,5.577,5.577,0,0,0,1.819,1.725,5.01,5.01,0,0,0,2.607.656,5.736,5.736,0,0,0,4.463-2.025l.6.713a11.723,11.723,0,0,1-1.313,1.837,8.967,8.967,0,0,1-1.669,1.5,7.855,7.855,0,0,1-1.969.994,6.971,6.971,0,0,1-2.25.357,6.408,6.408,0,0,1-3.132-.75,7.1,7.1,0,0,1-2.288-1.97,8.79,8.79,0,0,1-1.387-2.756,10.726,10.726,0,0,1-.469-3.15,10.517,10.517,0,0,1,.582-3.451,9.693,9.693,0,0,1,1.649-3,8.058,8.058,0,0,1,2.608-2.1A7.439,7.439,0,0,1,126.264,111.9Zm-.338,5.851q.75,0,1.219-.019a1.486,1.486,0,0,0,.712-.169.7.7,0,0,0,.319-.431,3.116,3.116,0,0,0,.075-.769,3.8,3.8,0,0,0-.169-1.088,3.2,3.2,0,0,0-.506-1.012,2.724,2.724,0,0,0-.825-.731,2.206,2.206,0,0,0-1.125-.282,3.111,3.111,0,0,0-1.538.375,3.826,3.826,0,0,0-1.162.994,5.539,5.539,0,0,0-.807,1.444,8.874,8.874,0,0,0-.469,1.688Z" style="fill: #fff"/>
          </g>
        </g>
        <g id="Ellisse_695" data-name="Ellisse 695">
          <circle cx="42.335" cy="42.335" r="42.251" style="stroke: #fff;stroke-miterlimit: 10;stroke-width: 0.167983416051825px"/>
          <circle cx="42.335" cy="42.335" r="41.707" style="fill: none;stroke: #fff;stroke-width: 1.08920252323151px"/>
        </g>
        <path id="Sottrazione_126" data-name="Sottrazione 126" d="M88.671,85.582V.878a42.372,42.372,0,0,1,29.1,71.889A42.134,42.134,0,0,1,88.671,85.582Z" style="stroke: #fff;stroke-miterlimit: 10"/>
        <path id="Unione_94" data-name="Unione 94" d="M42.559,52.85,28.2,63.556,34.02,46.343,21.135,36.838h16.1l5.322-15.724,5.29,15.724H63.533L50.964,46.1l5.871,17.457Z" style="fill: #fff;stroke: #000;stroke-width: 1.08613208040131px"/>
      </g>
    </g>
  </g>
</svg>
